<svg id="Grupo_11469" data-name="Grupo 11469" xmlns="http://www.w3.org/2000/svg" xmlns:xlink="http://www.w3.org/1999/xlink" width="101.598" height="106.015" viewBox="0 0 101.598 106.015">
  <defs>
    <clipPath id="clip-path">
      <rect id="Rectángulo_7532" data-name="Rectángulo 7532" width="101.598" height="106.014" fill="#7da1ff"/>
    </clipPath>
  </defs>
  <g id="Grupo_11468" data-name="Grupo 11468" transform="translate(0 0)" clip-path="url(#clip-path)">
    <path id="Trazado_21489" data-name="Trazado 21489" d="M98.466,59.023h-8.48V50.188a2.339,2.339,0,0,0-2.3-2.3H53.234V32.341a2.3,2.3,0,0,0-4.6,0v15.55H14.184a2.339,2.339,0,0,0-2.3,2.3v8.834H3.407a2.338,2.338,0,0,0-2.3,2.3V81.108a2.339,2.339,0,0,0,2.3,2.3H23.2a2.338,2.338,0,0,0,2.3-2.3V61.143a2.338,2.338,0,0,0-2.3-2.3H16.128V52.132H48.639v6.714H40.865a2.339,2.339,0,0,0-2.3,2.3V80.933a2.338,2.338,0,0,0,2.3,2.3H60.654a2.338,2.338,0,0,0,2.3-2.3V61.143a2.339,2.339,0,0,0-2.3-2.3H52.88V52.132H85.391v6.714H78.323a2.338,2.338,0,0,0-2.3,2.3V80.933a2.336,2.336,0,0,0,2.3,2.3H98.466a2.19,2.19,0,0,0,2.121-2.3V61.143a2.041,2.041,0,0,0-2.121-2.121M21.252,78.812H5.7V63.441h15.55Zm37.458,0H43.339V63.441H58.71Zm37.635,0H80.8V63.441H96.346Z" transform="translate(0.835 22.609)" fill="#7da1ff"/>
    <path id="Trazado_21490" data-name="Trazado 21490" d="M41.888,20.067a2.149,2.149,0,0,0,2.121,2.121,2.087,2.087,0,0,0,2.121-2.3A15.17,15.17,0,0,0,40.651,8.229a15.889,15.889,0,0,0-5.3-2.65,2.185,2.185,0,1,0-1.06,4.239,10.365,10.365,0,0,1,7.6,10.249" transform="translate(24.548 4.138)" fill="#7da1ff"/>
    <path id="Trazado_21491" data-name="Trazado 21491" d="M1.515,44.7a19.92,19.92,0,0,0,19.966,19.26H42.86a2.3,2.3,0,1,0,0-4.593H21.481A15.535,15.535,0,0,1,5.933,44,15.266,15.266,0,0,1,18.3,29.155h.354a11.42,11.42,0,0,1,8.834,3.535,2.252,2.252,0,0,0,3.356-3,15.963,15.963,0,0,0-10.424-5.124,11.794,11.794,0,0,1,11.661-9.718,11.071,11.071,0,0,1,4.77,1.059,2.127,2.127,0,0,0,2.827-1.059A18.924,18.924,0,0,1,56.642,4.418c11.661,0,20.673,10.247,18.731,21.556a2.324,2.324,0,0,0,2.3,2.652,15.208,15.208,0,0,1,1.237,30.39h-20.5a2.191,2.191,0,0,0-2.121,2.3,2.313,2.313,0,0,0,2.121,2.3h20.32A19.433,19.433,0,0,0,97.457,43.82,19.693,19.693,0,0,0,79.789,24.384C80.672,11.309,69.894,0,56.465,0A23.279,23.279,0,0,0,36.5,11.134a14.157,14.157,0,0,0-4.77-.708A16.318,16.318,0,0,0,15.473,25.092,20.6,20.6,0,0,0,1.515,44.7" transform="translate(1.137 0)" fill="#7da1ff"/>
    <path id="Trazado_21492" data-name="Trazado 21492" d="M13.252,7.747A6.564,6.564,0,0,0,6.537,1.21,6.521,6.521,0,0,0,0,7.747a6.676,6.676,0,0,0,6.537,6.714,6.713,6.713,0,0,0,6.716-6.714m-8.836,0a2.314,2.314,0,0,1,2.121-2.3,2.339,2.339,0,0,1,2.3,2.3,2.339,2.339,0,0,1-2.3,2.3,2.191,2.191,0,0,1-2.121-2.3" transform="translate(0 0.91)" fill="#7da1ff"/>
    <path id="Trazado_21493" data-name="Trazado 21493" d="M56.875,19.178A7.843,7.843,0,0,0,64.649,11.4a7.774,7.774,0,1,0-15.548,0,7.728,7.728,0,0,0,7.774,7.774m0-10.955a3.357,3.357,0,1,1-3.356,3.358,3.249,3.249,0,0,1,3.356-3.358" transform="translate(36.949 2.731)" fill="#7da1ff"/>
    <path id="Trazado_21494" data-name="Trazado 21494" d="M12.279,6.837a2.339,2.339,0,0,0,2.3-2.3,2.191,2.191,0,0,0-2.3-2.121,2.315,2.315,0,0,0-2.3,2.121,2.227,2.227,0,0,0,2.3,2.3" transform="translate(7.511 1.82)" fill="#7da1ff"/>
    <path id="Trazado_21495" data-name="Trazado 21495" d="M6.029,37.708a2.3,2.3,0,1,1-2.3,2.3,2.3,2.3,0,0,1,2.3-2.3" transform="translate(2.807 28.375)" fill="#7da1ff"/>
    <path id="Trazado_21496" data-name="Trazado 21496" d="M56.439,37.708a2.3,2.3,0,1,0,2.3,2.3,2.622,2.622,0,0,0-2.3-2.3" transform="translate(40.742 28.375)" fill="#7da1ff"/>
  </g>
</svg>
