<svg xmlns="http://www.w3.org/2000/svg" width="102.03" height="47.92" viewBox="0 0 102.03 47.92">
  <g id="Grupo_5601" data-name="Grupo 5601" transform="translate(2774.314 -9413)">
    <g id="google-icon" transform="translate(-2774.314 9413)">
      <path id="Trazado_18258" data-name="Trazado 18258" d="M153.552,111.659a20.533,20.533,0,0,0-.506-4.9h-22.5v8.892h13.2a11.709,11.709,0,0,1-4.9,7.774l-.045.3,7.113,5.51.493.049c4.526-4.18,7.135-10.33,7.135-17.624" transform="translate(-106.59 -87.167)" fill="#4285f4"/>
      <path id="Trazado_18259" data-name="Trazado 18259" d="M35.329,175.591a22.837,22.837,0,0,0,15.867-5.8l-7.561-5.857a14.181,14.181,0,0,1-8.306,2.4A14.424,14.424,0,0,1,21.7,156.37l-.281.024-7.4,5.724-.1.269a23.943,23.943,0,0,0,21.4,13.2" transform="translate(-11.369 -127.671)" fill="#34a853"/>
      <path id="Trazado_18260" data-name="Trazado 18260" d="M10.329,86.923a14.751,14.751,0,0,1-.8-4.739,15.5,15.5,0,0,1,.772-4.739l-.013-.318L2.8,71.312l-.245.117a23.91,23.91,0,0,0,0,21.511l7.774-6.017" transform="translate(0 -58.224)" fill="#fbbc05"/>
      <path id="Trazado_18261" data-name="Trazado 18261" d="M35.329,9.265a13.279,13.279,0,0,1,9.265,3.567l6.762-6.6A23.02,23.02,0,0,0,35.329,0a23.943,23.943,0,0,0-21.4,13.2l7.747,6.017A14.483,14.483,0,0,1,35.329,9.265" transform="translate(-11.369 0)" fill="#eb4335"/>
    </g>
    <text id="Google_Partner" data-name="Google
Partner" transform="translate(-2697.284 9433.205)" fill="#fff" font-size="14" font-family="Futura-Medium, Futura" font-weight="500"><tspan x="-24" y="0">Google</tspan><tspan x="-22" y="18">Partner</tspan></text>
  </g>
</svg>
