<svg xmlns="http://www.w3.org/2000/svg" xmlns:xlink="http://www.w3.org/1999/xlink" width="121.429" height="124.524" viewBox="0 0 121.429 124.524">
  <defs>
    <clipPath id="clip-path">
      <rect id="Rectángulo_7512" data-name="Rectángulo 7512" width="121.429" height="124.524" fill="#7da1ff"/>
    </clipPath>
  </defs>
  <g id="Grupo_11458" data-name="Grupo 11458" transform="translate(-15 -29)">
    <g id="Grupo_11457" data-name="Grupo 11457" transform="translate(15 29)" clip-path="url(#clip-path)">
      <path id="Trazado_21417" data-name="Trazado 21417" d="M29.919,41.2a2.778,2.778,0,1,1-2.809,2.779A2.792,2.792,0,0,1,29.919,41.2" transform="translate(30.795 46.799)" fill="#7da1ff"/>
      <path id="Trazado_21418" data-name="Trazado 21418" d="M16.511,48.2a1.923,1.923,0,1,1-1.944,1.922A1.934,1.934,0,0,1,16.511,48.2" transform="translate(16.547 54.75)" fill="#7da1ff"/>
      <path id="Trazado_21419" data-name="Trazado 21419" d="M46.859,52a1.922,1.922,0,1,1-1.944,1.92A1.933,1.933,0,0,1,46.859,52" transform="translate(51.019 59.068)" fill="#7da1ff"/>
      <path id="Trazado_21420" data-name="Trazado 21420" d="M53.839,2a1.922,1.922,0,1,1-1.944,1.92A1.933,1.933,0,0,1,53.839,2" transform="translate(58.948 2.272)" fill="#7da1ff"/>
      <path id="Trazado_21421" data-name="Trazado 21421" d="M42.409.1a1.933,1.933,0,0,1,1.944,1.922,1.945,1.945,0,0,1-3.889,0A1.934,1.934,0,0,1,42.409.1" transform="translate(45.962 0.114)" fill="#7da1ff"/>
      <path id="Trazado_21422" data-name="Trazado 21422" d="M8.317,2A1.922,1.922,0,1,1,6.373,3.92,1.933,1.933,0,0,1,8.317,2" transform="translate(7.239 2.272)" fill="#7da1ff"/>
      <path id="Trazado_21423" data-name="Trazado 21423" d="M2.551,50.1A1.922,1.922,0,1,1,.607,52.022,1.934,1.934,0,0,1,2.551,50.1" transform="translate(0.689 56.91)" fill="#7da1ff"/>
      <path id="Trazado_21424" data-name="Trazado 21424" d="M13.857,49.4a9.4,9.4,0,1,0,9.507,9.4,9.537,9.537,0,0,0-9.507-9.4m0,16.019a6.622,6.622,0,1,1,6.7-6.621c.216,3.633-3.024,6.621-6.7,6.621" transform="translate(4.941 56.113)" fill="#7da1ff"/>
      <path id="Trazado_21425" data-name="Trazado 21425" d="M111.49,14.738H87.722V10.68a1.1,1.1,0,0,0-.431-.854L77.784.425A1.653,1.653,0,0,0,76.921,0H35a1.385,1.385,0,0,0-1.3,1.282V14.738H9.938A9.855,9.855,0,0,0,0,24.563V90.349a9.856,9.856,0,0,0,9.938,9.825H39.106v.214a6.7,6.7,0,0,0,6.7,6.621h4.1v8.116H39.756a4.7,4.7,0,1,0,0,9.4H81.673a4.7,4.7,0,1,0,0-9.4H71.517v-8.116h4.105a6.7,6.7,0,0,0,6.7-6.621v-.214h29.17a9.855,9.855,0,0,0,9.938-9.825V24.563a9.855,9.855,0,0,0-9.938-9.825M10.8,76.25h100.04v5.34H10.8Zm99.824-2.775H10.8V25.417H33.707V66.854A1.385,1.385,0,0,0,35,68.136H86.425a1.385,1.385,0,0,0,1.3-1.282V25.417h22.9Zm-74.11-70.7H76.487l8.642,8.544V65.57H36.516Zm47.1,116.834a1.924,1.924,0,0,1-1.944,1.922H39.756a1.922,1.922,0,1,1,0-3.845H81.673c1.081-.214,1.944.854,1.944,1.922m-14.693-4.7H52.719V106.8H68.924Zm10.8-14.524a3.85,3.85,0,0,1-3.887,3.845H45.807a3.853,3.853,0,0,1-3.892-3.845v-.214Zm39.109-10.039a7.243,7.243,0,0,1-7.345,7.26H9.938a7.243,7.243,0,0,1-7.345-7.26V24.563A7.244,7.244,0,0,1,9.938,17.3H33.707v5.34H9.507a1.385,1.385,0,0,0-1.3,1.279V82.658a1.386,1.386,0,0,0,1.3,1.284H112.138a1.386,1.386,0,0,0,1.3-1.284V24.136a1.387,1.387,0,0,0-1.3-1.284H87.722v-5.34H111.49a7.244,7.244,0,0,1,7.345,7.264Z" transform="translate(0 0)" fill="#7da1ff"/>
      <path id="Trazado_21426" data-name="Trazado 21426" d="M55.053,51.3a1.922,1.922,0,1,1-1.944,1.92,1.933,1.933,0,0,1,1.944-1.92" transform="translate(60.327 58.273)" fill="#7da1ff"/>
      <path id="Trazado_21427" data-name="Trazado 21427" d="M22.937,15.214a1.636,1.636,0,0,0,.865.425,1.637,1.637,0,0,0,.863-.425l6.7-6.623a1.578,1.578,0,0,0,0-1.92,1.626,1.626,0,0,0-1.944,0l-5.835,5.765-1.944-1.92a1.629,1.629,0,0,0-1.946,0,1.578,1.578,0,0,0,0,1.92Z" transform="translate(22.004 7.213)" fill="#7da1ff"/>
      <path id="Trazado_21428" data-name="Trazado 21428" d="M27.9,12.061H45.4a1.385,1.385,0,0,0,1.3-1.282A1.385,1.385,0,0,0,45.4,9.5H27.9a1.387,1.387,0,0,0-1.3,1.279,1.239,1.239,0,0,0,1.3,1.282" transform="translate(30.22 10.792)" fill="#7da1ff"/>
      <path id="Trazado_21429" data-name="Trazado 21429" d="M28.015,9.561H36.01a1.387,1.387,0,0,0,1.3-1.282A1.387,1.387,0,0,0,36.01,7H27.8a1.387,1.387,0,0,0-1.3,1.279,1.44,1.44,0,0,0,1.512,1.282" transform="translate(30.105 7.952)" fill="#7da1ff"/>
      <path id="Trazado_21430" data-name="Trazado 21430" d="M22.937,23.359a1.64,1.64,0,0,0,.865.427,1.642,1.642,0,0,0,.863-.427l6.7-6.621a1.581,1.581,0,0,0,0-1.922c-.431-.641-1.3-.427-1.944,0l-5.835,5.767L21.641,18.66a1.629,1.629,0,0,0-1.946,0,1.581,1.581,0,0,0,0,1.922Z" transform="translate(22.004 16.37)" fill="#7da1ff"/>
      <path id="Trazado_21431" data-name="Trazado 21431" d="M27.923,20.061h17.5a1.385,1.385,0,0,0,1.3-1.282,1.385,1.385,0,0,0-1.3-1.279h-17.5a1.387,1.387,0,0,0-1.3,1.279c-.216.856.434,1.282,1.3,1.282" transform="translate(30.198 19.879)" fill="#7da1ff"/>
      <path id="Trazado_21432" data-name="Trazado 21432" d="M28.015,17.561H36.01a1.387,1.387,0,0,0,1.3-1.282A1.387,1.387,0,0,0,36.01,15H27.8a1.387,1.387,0,0,0-1.3,1.279c0,.857.649,1.282,1.512,1.282" transform="translate(30.105 17.039)" fill="#7da1ff"/>
      <path id="Trazado_21433" data-name="Trazado 21433" d="M22.937,31.457a1.625,1.625,0,0,0,.865.427,1.626,1.626,0,0,0,.863-.427l6.7-6.621a1.581,1.581,0,0,0,0-1.922c-.431-.641-1.3-.425-1.944,0l-5.835,5.767-1.944-1.92a1.629,1.629,0,0,0-1.946,0,1.578,1.578,0,0,0,0,1.92Z" transform="translate(22.004 25.57)" fill="#7da1ff"/>
      <path id="Trazado_21434" data-name="Trazado 21434" d="M27.923,28.262h17.5a1.282,1.282,0,1,0,0-2.563h-17.5a1.389,1.389,0,0,0-1.3,1.282c-.216.641.434,1.282,1.3,1.282" transform="translate(30.198 29.192)" fill="#7da1ff"/>
      <path id="Trazado_21435" data-name="Trazado 21435" d="M28.015,25.762H36.01a1.282,1.282,0,1,0,0-2.563H27.8a1.389,1.389,0,0,0-1.3,1.282,1.44,1.44,0,0,0,1.512,1.282" transform="translate(30.105 26.352)" fill="#7da1ff"/>
    </g>
  </g>
</svg>
