<svg xmlns="http://www.w3.org/2000/svg" xmlns:xlink="http://www.w3.org/1999/xlink" width="149.059" height="137.439" viewBox="0 0 149.059 137.439">
  <defs>
    <clipPath id="clip-path">
      <rect id="Rectángulo_7513" data-name="Rectángulo 7513" width="149.059" height="137.439" fill="#7da1ff"/>
    </clipPath>
  </defs>
  <g id="Grupo_11460" data-name="Grupo 11460" transform="translate(0 0)">
    <g id="Grupo_11459" data-name="Grupo 11459" transform="translate(0 0)" clip-path="url(#clip-path)">
      <path id="Trazado_21436" data-name="Trazado 21436" d="M12.375,71.761H47.064a7.246,7.246,0,0,0,7.319-7.234V8.534A7.246,7.246,0,0,0,47.064,1.3H12.375A7.246,7.246,0,0,0,5.058,8.534V64.527a7.246,7.246,0,0,0,7.317,7.234m34.419-3.483H12.375a3.684,3.684,0,0,1-3.794-3.751V58.365H50.86v6.162a3.919,3.919,0,0,1-4.067,3.751M12.375,4.783H47.064a3.685,3.685,0,0,1,3.8,3.751V54.883H8.581V8.534a3.684,3.684,0,0,1,3.794-3.751" transform="translate(8.493 2.182)" fill="#7da1ff"/>
      <path id="Trazado_21437" data-name="Trazado 21437" d="M13.664,8.315h8.4a1.74,1.74,0,0,0,1.626-1.607A1.74,1.74,0,0,0,22.066,5.1h-8.4a1.74,1.74,0,0,0-1.626,1.607,1.74,1.74,0,0,0,1.626,1.607" transform="translate(20.213 8.563)" fill="#7da1ff"/>
      <path id="Trazado_21438" data-name="Trazado 21438" d="M35.317.1a2.424,2.424,0,0,1,2.438,2.411,2.44,2.44,0,0,1-4.879,0A2.426,2.426,0,0,1,35.317.1" transform="translate(55.203 0.167)" fill="#7da1ff"/>
      <path id="Trazado_21439" data-name="Trazado 21439" d="M2.438,18.2a2.411,2.411,0,1,1,0,4.822,2.411,2.411,0,1,1,0-4.822" transform="translate(0 30.559)" fill="#7da1ff"/>
      <path id="Trazado_21440" data-name="Trazado 21440" d="M8.2,34.5a2.411,2.411,0,1,1-2.438,2.411A2.426,2.426,0,0,1,8.2,34.5" transform="translate(9.682 57.929)" fill="#7da1ff"/>
      <path id="Trazado_21441" data-name="Trazado 21441" d="M27.73,49.5a2.411,2.411,0,1,1-2.441,2.411A2.424,2.424,0,0,1,27.73,49.5" transform="translate(42.464 83.116)" fill="#7da1ff"/>
      <path id="Trazado_21442" data-name="Trazado 21442" d="M56.257,27.6a2.411,2.411,0,1,1-2.441,2.411A2.426,2.426,0,0,1,56.257,27.6" transform="translate(90.364 46.343)" fill="#7da1ff"/>
      <path id="Trazado_21443" data-name="Trazado 21443" d="M48.973,14.5a2.411,2.411,0,1,1-2.441,2.411A2.426,2.426,0,0,1,48.973,14.5" transform="translate(78.133 24.347)" fill="#7da1ff"/>
      <path id="Trazado_21444" data-name="Trazado 21444" d="M89.724,57.9a28.729,28.729,0,0,0-57.454,0C32.27,73.438,45.28,86.3,61,86.3A28.577,28.577,0,0,0,89.724,57.9M61,32.715A24.987,24.987,0,0,1,82.951,70.491a27.255,27.255,0,0,0-14.636-9.109,11.755,11.755,0,0,0,4.879-9.645,12.2,12.2,0,0,0-24.391,0,11.76,11.76,0,0,0,4.876,9.645,28.918,28.918,0,0,0-14.633,9.109A24.987,24.987,0,0,1,61,32.715M52.326,51.737A8.673,8.673,0,1,1,61,60.31a8.682,8.682,0,0,1-8.672-8.573M40.942,73.17a25.672,25.672,0,0,1,40.109,0,25.347,25.347,0,0,1-40.109,0" transform="translate(54.186 49.533)" fill="#7da1ff"/>
      <path id="Trazado_21445" data-name="Trazado 21445" d="M57.884,64.065a44,44,0,0,1-42.55-32.15,1.717,1.717,0,0,0-2.167-1.072,1.69,1.69,0,0,0-1.085,2.143c5.42,20.361,24.391,34.829,45.8,34.829a1.74,1.74,0,0,0,1.626-1.607c0-1.34-.814-2.143-1.626-2.143" transform="translate(20.169 51.673)" fill="#7da1ff"/>
      <path id="Trazado_21446" data-name="Trazado 21446" d="M30.186,12.715c24.391,0,44.176,19.558,44.176,43.67a1.626,1.626,0,0,0,3.252,0C77.615,30.665,56.2,9.5,30.186,9.5a1.738,1.738,0,0,0-1.626,1.607c-.271.8.541,1.607,1.626,1.607" transform="translate(47.868 15.951)" fill="#7da1ff"/>
      <path id="Trazado_21447" data-name="Trazado 21447" d="M55.524,23.576A11.962,11.962,0,0,0,67.449,11.788a11.926,11.926,0,0,0-23.85,0A11.962,11.962,0,0,0,55.524,23.576m0-20.093a8.4,8.4,0,0,1,8.4,8.305,8.4,8.4,0,0,1-16.8,0,8.4,8.4,0,0,1,8.4-8.305" transform="translate(73.208 -0.001)" fill="#7da1ff"/>
      <path id="Trazado_21448" data-name="Trazado 21448" d="M13.46,42.6a8.306,8.306,0,1,0,8.4,8.305c.271-4.555-3.794-8.305-8.4-8.305m0,13.4a5.116,5.116,0,0,1-5.149-5.09,4.955,4.955,0,0,1,5.149-5.09A5.091,5.091,0,1,1,13.46,56" transform="translate(8.493 71.53)" fill="#7da1ff"/>
    </g>
  </g>
</svg>
