<svg id="Icon_-_footer_-_keos" data-name="Icon - footer - keos" xmlns="http://www.w3.org/2000/svg" width="98.784" height="37.596" viewBox="0 0 98.784 37.596">
  <g id="Grupo_54" data-name="Grupo 54">
    <path id="Path_12" data-name="Path 12" d="M311.79,477.851a2.7,2.7,0,1,0-2.708-2.7,2.706,2.706,0,0,0,2.708,2.7" transform="translate(-215.714 -463.945)" fill="#fff"/>
    <path id="Path_13" data-name="Path 13" d="M304.118,479.619h-.034l-7.108.089a2.343,2.343,0,0,1,.014-4.685h3.559a2.7,2.7,0,1,0,0-5.408H296.99a7.748,7.748,0,1,0,0,15.5h.034l7.108-.089a2.253,2.253,0,0,1-.014,4.506h-3.571a2.7,2.7,0,1,0,0,5.408h3.571a7.659,7.659,0,1,0,0-15.318" transform="translate(-213.003 -463.559)" fill="#fff"/>
    <path id="Path_14" data-name="Path 14" d="M291.942,495.226a2.7,2.7,0,1,0-2.708-2.7,2.706,2.706,0,0,0,2.708,2.7" transform="translate(-213.004 -466.317)" fill="#fff"/>
    <path id="Path_15" data-name="Path 15" d="M268.671,494.946A12.632,12.632,0,1,1,281.3,482.313a12.646,12.646,0,0,1-12.632,12.632m0-19.851a7.219,7.219,0,1,0,7.219,7.219,7.226,7.226,0,0,0-7.219-7.219" transform="translate(-208.471 -463.568)" fill="#fff"/>
    <path id="Path_16" data-name="Path 16" d="M237.231,494.946a12.632,12.632,0,1,1,10.754-19.264,2.705,2.705,0,0,1-.968,3.777l-9.189,5.209a2.707,2.707,0,1,1-2.67-4.709l6.246-3.541a7.219,7.219,0,1,0,1.984,9.685,2.706,2.706,0,0,1,3.723-.882h0a2.708,2.708,0,0,1,.881,3.726,12.561,12.561,0,0,1-10.753,6" transform="translate(-204.178 -463.568)" fill="#fff"/>
    <g id="Grupo_53" data-name="Grupo 53">
      <path id="Trazado_89" data-name="Trazado 89" d="M212.708,478.181a2.751,2.751,0,0,0,3.823-.72l3.785-5.543a2.75,2.75,0,1,0-4.543-3.1l-3.785,5.543A2.751,2.751,0,0,0,212.708,478.181Z" transform="translate(-202.391 -463.286)" fill="#fff"/>
      <path id="Trazado_90" data-name="Trazado 90" d="M223.141,495.751,210.285,479.3h0a2.751,2.751,0,0,0-3.832-.495V465.332h0a2.731,2.731,0,0,0-2.732-2.731h-.04a2.731,2.731,0,0,0-2.731,2.731v25.923h0a2.732,2.732,0,0,0,2.731,2.732h.04v.005a2.731,2.731,0,0,0,2.732-2.731v-7.929L218.8,499.139h0a2.751,2.751,0,0,0,3.862.474h0A2.751,2.751,0,0,0,223.141,495.751Z" transform="translate(-200.949 -462.601)" fill="#fff"/>
    </g>
  </g>
</svg>
