<svg xmlns="http://www.w3.org/2000/svg" width="83" height="37.46" viewBox="0 0 83 37.46">
  <g id="Grupo_5602" data-name="Grupo 5602" transform="translate(2639 -9293)">
    <g id="iso" transform="translate(-2638.999 9293.001)">
      <path id="Trazado_18262" data-name="Trazado 18262" d="M45.387,14.763a6.421,6.421,0,0,0-2.436-2.921A11.75,11.75,0,0,0,31.7,11.506a6.535,6.535,0,0,0-3.312,4.55c-.66,3.037-.49,6.649,1.85,8.925a11.077,11.077,0,0,0,10.228,1.937,4.588,4.588,0,0,0,1.066-.361l.1-.044a7.219,7.219,0,0,0,2.923-2.2c1.8-2.634,1.925-6.582.829-9.548m-5.748,6.819a1.873,1.873,0,0,1-1.123,1.389,3.829,3.829,0,0,1-3.189-.191,2.872,2.872,0,0,1-.95-2.25,14.917,14.917,0,0,1,.269-4.906,2.378,2.378,0,0,1,2.265-1.245,2.873,2.873,0,0,1,2.459.91,4.224,4.224,0,0,1,.415,1.914,29.6,29.6,0,0,1-.146,4.378M10.778,23.068c-.8-.049-1.705.021-2.484-.074l.024-8.4.049-.07,2.41-.023c.025-1.364.049-2.826-.025-4.069L1.572,10.4.061,10.43c-.024,1.267-.024,2.75,0,4.043.829.026,1.607,0,2.411.075v8.137l-.023.334-2.412.049q-.075,1.974,0,3.949h10.74V23.068ZM37.81,28.81a18.681,18.681,0,0,1-3.722,3.971c-.051.075-.2.046-.244-.022-.611-.382-1.268-.694-1.854-1.076a19.834,19.834,0,0,0,2.12-2.9h-.758a16.8,16.8,0,0,1-2.043,2.609,26.371,26.371,0,0,0-3.142-1.1l-.122-.091a11.764,11.764,0,0,0,.583-1.417h-.657l-.657,1.293a31.251,31.251,0,0,0-4.48-.575c-.074-.215.023-.526-.074-.718h-.633c-.05.288.073.5-.073.744a28.156,28.156,0,0,0-4.382.529l-.66-1.272a2.081,2.081,0,0,0-.68.026l.608,1.412-.073.07a30.738,30.738,0,0,0-3.215,1.127l-.1-.049A19.044,19.044,0,0,1,11.677,29c-.121-.409-.608-.17-.876-.218a20.659,20.659,0,0,0,2.142,2.945c-.657.384-1.312.812-2,1.127A17.558,17.558,0,0,1,7.1,28.811a2.806,2.806,0,0,0-.78,0,19.1,19.1,0,0,0,7.332,6.533s0-.021.026-.021.069.044.021.069a20.134,20.134,0,0,0,6.138,1.892,19.176,19.176,0,0,0,18.752-8.473,3.85,3.85,0,0,0-.778,0M27.656,30.964l.072-.048A13.619,13.619,0,0,1,30.7,31.944a15.33,15.33,0,0,1-2.7,2.3c-.559.334-1.122.7-1.707.982l-1.045-.455.072-.166a28.627,28.627,0,0,0,2.339-3.639m-4.8-.718a19.107,19.107,0,0,1,4.067.479l.026.073a24.553,24.553,0,0,1-2.459,3.708,6.726,6.726,0,0,1-1.218-.142l-.416-.049c-.048-1.412-.073-2.657,0-4.069m-4.7.431a21.168,21.168,0,0,1,3.944-.431l.025,4.049c-.512.116-1.072.116-1.56.239a21.316,21.316,0,0,1-2.531-3.762ZM14.235,31.97a16.042,16.042,0,0,1,2.971-1.054l.1.025a37.27,37.27,0,0,0,2.458,3.8c-.338.193-.754.308-1.094.5a16.407,16.407,0,0,1-4.433-3.208v-.07Zm3.143,4.092a17.3,17.3,0,0,1-5.7-2.68v-.074a14.1,14.1,0,0,1,1.8-1.006,24.872,24.872,0,0,0,4.384,3.376,1.894,1.894,0,0,1-.486.384m9.035.309a18.541,18.541,0,0,1-8.037-.046c-.049-.119.122-.145.194-.215a7.614,7.614,0,0,1,8.014.116c.072.144-.122.1-.172.144m2.339-.668-1.145.358a2.737,2.737,0,0,1-.537-.384l.049-.073a21.63,21.63,0,0,0,4.311-3.326,9.643,9.643,0,0,1,1.878,1.029,16.458,16.458,0,0,1-4.556,2.4M7.052,8.586A22.461,22.461,0,0,1,9.024,6.217a12.922,12.922,0,0,1,1.9-1.605c.634.406,1.339.745,1.948,1.127a21,21,0,0,0-2.094,2.869,1.429,1.429,0,0,0,.732,0,18.44,18.44,0,0,1,2.046-2.56c1.045.384,2.069.789,3.142,1.078l.095.1-.606,1.387a2.152,2.152,0,0,0,.705,0c.219-.4.388-.858.632-1.267a23.919,23.919,0,0,0,4.411.526c.193.17.048.527.121.741h.657c.072-.235-.025-.5.072-.715a23.358,23.358,0,0,0,4.267-.553l.119.025.658,1.242a1.517,1.517,0,0,0,.682-.049L27.9,7.173l.051-.048a26.247,26.247,0,0,0,3.239-1.148,22.448,22.448,0,0,1,2.1,2.629,2.234,2.234,0,0,0,.73-.049A9.681,9.681,0,0,0,32.967,7.05a10.2,10.2,0,0,0-1.073-1.289V5.637l1.705-.98.246-.1A17.787,17.787,0,0,1,37.69,8.557c.292,0,.537.1.781-.02A19.292,19.292,0,0,0,24,.068l-.026.046-.05-.046A11.1,11.1,0,0,0,21.76.04a5.747,5.747,0,0,0-.9.028A19.091,19.091,0,0,0,6.271,8.609a2.749,2.749,0,0,0,.78-.023m10.109-2.1-.1.021a19.443,19.443,0,0,1-2.9-.98l.047-.144A19.108,19.108,0,0,1,18.52,2.246c.367.144.732.262,1.1.432l-.072.187A30.553,30.553,0,0,0,17.16,6.483m4.845.644a8.8,8.8,0,0,1-1.974-.074,13.175,13.175,0,0,1-2.142-.384,21.4,21.4,0,0,1,2.533-3.751l1.559.213c.072,1.242.023,2.679.023,4m.754.026c-.048-1.272-.023-2.682,0-4,.489-.07,1.022-.144,1.511-.215a20.708,20.708,0,0,1,2.511,3.73,17.263,17.263,0,0,1-4.022.484m7.772-1.678a16.013,16.013,0,0,1-2.973,1.008,40.5,40.5,0,0,0-2.51-3.762c.341-.187.758-.331,1.122-.522a17.21,17.21,0,0,1,4.408,3.2Zm-3.12-4.092a17.369,17.369,0,0,1,5.724,2.68l-.049.1-1.679.932h-.124a21.223,21.223,0,0,0-4.335-3.3c.049-.168.293-.288.462-.408m-.973-.24v.051a7.44,7.44,0,0,1-7.793.26c-.126-.1-.366-.142-.392-.31a18.263,18.263,0,0,1,8.185,0M11.581,4.112a17.508,17.508,0,0,1,5.043-2.536c.074-.075.121-.145.217-.145V1.48c.194.047.341-.17.511-.028.147.124.319.219.439.338a24.786,24.786,0,0,0-4.36,3.372,8.033,8.033,0,0,1-1.851-1V4.112ZM22.03,23.255a6.463,6.463,0,0,1-6.43-1.578c-.194-.239-.317-.524-.512-.763l-3.287.023c-.052,1.938-.075,4.164,0,6.08l3.652-.023.049-1.149c.416.191.83.43,1.243.645a10.226,10.226,0,0,0,8.3,0,4.918,4.918,0,0,0,2.534-5.027,5.769,5.769,0,0,0-4.187-4.377l-5.9-1.7-.436-.216a.672.672,0,0,1-.27-.646c.463-.788,1.536-.549,2.339-.527a5.967,5.967,0,0,1,4.457,2.371c1.07,0,2.312.021,3.48-.025.05-1.962-.019-3.684-.048-5.671-1.1-.025-2.436-.025-3.53.025a4.462,4.462,0,0,1-.075.978l-1.119-.6c-2.68-1.124-6.431-1.242-8.866.505A4.822,4.822,0,0,0,11.775,16.6c.315,1.72,1.971,2.99,3.555,3.587,2.167.765,4.431,1.319,6.627,2.06.217.1.509.314.462.577,0,.213-.22.335-.389.427" transform="translate(0)" fill="#ebebeb"/>
    </g>
    <text id="_27001" data-name="27001" transform="translate(-2590 9316)" fill="#ebebeb" font-size="12" font-family="Arial-BoldMT, Arial" font-weight="700"><tspan x="0" y="0">27001</tspan></text>
  </g>
</svg>
