<svg xmlns="http://www.w3.org/2000/svg" width="98.931" height="46.921" viewBox="0 0 98.931 46.921">
  <g id="Grupo_5603" data-name="Grupo 5603" transform="translate(-663.178 -20375.246)">
    <g id="Grupo_5590" data-name="Grupo 5590" transform="translate(3115.541 10274.492)">
      <path id="Trazado_978" data-name="Trazado 978" d="M1622.838,104c1.293,2.94,2.569,5.888,3.882,8.819q4.474,9.986,8.978,19.959c.1.228.2.458.35.8l-11.3,3.552c-.024-.541-.058-.948-.059-1.356,0-5.394-.02-10.788.015-16.182.006-.916-.181-1.3-1.207-1.257-1.968.088-3.943.025-5.99.025v18.85h6.152l.035.24c-2.014.641-4.025,1.288-6.041,1.921q-17.765,5.579-35.529,11.158a6.723,6.723,0,0,0-.841.394h-.192l-5-13.71h7.161v-5.6c.683,0,1.282.023,1.878,0a12.908,12.908,0,0,0,6.576-1.711,5.732,5.732,0,0,0,2.814-5.585,5.111,5.111,0,0,0-3.334-4.625,14.276,14.276,0,0,0-4.305-1.125c-3.241-.208-6.5-.119-9.749-.226-.966-.032-1.164.319-1.158,1.2.034,5.263.017,10.527.017,15.79v1.607c-.138-.36-.371-.982-.435-1.154q-4.687-12.721-9.375-25.441c-.361-.977-.783-1.931-1.177-2.9v-.192c5-.257,9.994-.5,14.988-.776,6.173-.345,12.344-.738,18.518-1.085,6.3-.354,12.6-.669,18.906-1.021,1.492-.083,2.979-.248,4.468-.375Zm-8.76,20.1c0-1.588-.033-2.957.015-4.323a.931.931,0,0,0-.807-1.064,18.62,18.62,0,0,0-7.3-.477,12.935,12.935,0,0,0-5.915,2,8.7,8.7,0,0,0-4.238,8.053,8.368,8.368,0,0,0,5.016,7.657c4.253,2.02,8.676,2,13.149.827.183-.048.463-.246.466-.379.033-1.475.021-2.95.021-4.5-.479.152-.78.251-1.083.343a11.605,11.605,0,0,1-5.928.463,4.8,4.8,0,0,1-4.021-5.408c.271-2.79,2.091-4.407,4.956-4.527A11.393,11.393,0,0,1,1614.078,124.1Zm2.581-11.5a4.4,4.4,0,0,0,8.774,0,4.139,4.139,0,0,0-4.445-4.194A4.075,4.075,0,0,0,1616.659,112.593Z" transform="translate(-4017.363 9996.753)" fill="#fff"/>
      <path id="Trazado_979" data-name="Trazado 979" d="M1660.026,200.641a22.334,22.334,0,0,1,2.737.3,1.953,1.953,0,0,1,1.627,2.054,2.078,2.078,0,0,1-1.5,2.27,3.543,3.543,0,0,1-.544.171c-2.158.439-2.322.306-2.322-1.866Z" transform="translate(-4094.189 9918.619)" fill="#fff"/>
    </g>
    <g id="Grupo_5596" data-name="Grupo 5596" transform="translate(3050 11090.001)">
      <text id="DSS" transform="translate(-2305.891 9317.165)" fill="#ebebeb" font-size="12" font-family="AcuminProCond-Bold, Acumin Pro Condensed" font-weight="700"><tspan x="0" y="0">DSS</tspan></text>
      <text id="Certified" transform="translate(-2323.391 9329.165)" fill="#ebebeb" font-size="12" font-family="AcuminProCond-Regular, Acumin Pro Condensed"><tspan x="0" y="0">Certified</tspan></text>
    </g>
    <g id="Grupo_5594" data-name="Grupo 5594" transform="translate(3105 10979.831)">
      <path id="Trazado_18263" data-name="Trazado 18263" d="M35.456,1.351C35.042.6,33.7.153,31.477.026c-1.22-.07-3.464-.057-4.789.809C20.633,4.792,15.849,10.7,11.82,16.136L9.16,11.612c-.186-.317-.622-1.059-4.085-1.138-1.22-.028-3.41.027-4.385.708a1.546,1.546,0,0,0-.464,2.089L6.879,24.588c.288.491.89.963,3.32,1.1.337.019.787.037,1.289.037,1.566,0,3.628-.176,4.265-1.045.688-.939,1.387-1.905,2.063-2.84C22.834,14.9,28.023,7.73,34.958,3.2a1.38,1.38,0,0,0,.5-1.846" transform="translate(-2396.16 9409.49)"/>
      <path id="Trazado_18264" data-name="Trazado 18264" d="M30.965,5.741C24.708,9.879,19.883,16.047,15.341,22.327l-3.453-5.942c-.511-.879-8.145-.992-7.293.475L11.31,28.415c.485.835,6.667.863,7.293,0,5.814-8.022,11.526-16.824,19.654-22.2,1.331-.88-5.2-1.859-7.293-.475" transform="translate(-2399.829 9405.397)" fill="#fff"/>
      <rect id="Rectángulo_6167" data-name="Rectángulo 6167" width="35.626" height="25.727" transform="translate(-2396.16 9409.49)" fill="none"/>
    </g>
  </g>
</svg>
