<svg xmlns="http://www.w3.org/2000/svg" xmlns:xlink="http://www.w3.org/1999/xlink" width="98.249" height="100.589" viewBox="0 0 98.249 100.589">
  <defs>
    <clipPath id="clip-path">
      <rect id="Rectángulo_7531" data-name="Rectángulo 7531" width="98.249" height="100.589" fill="#7da1ff"/>
    </clipPath>
  </defs>
  <g id="Grupo_11467" data-name="Grupo 11467" transform="translate(0 0)">
    <g id="Grupo_11466" data-name="Grupo 11466" transform="translate(0 0)" clip-path="url(#clip-path)">
      <path id="Trazado_21479" data-name="Trazado 21479" d="M83.831,48.283A6.311,6.311,0,0,0,82.323,39.9l-9.052-7.376V12.072a1.269,1.269,0,0,0-.336-.67l-.168-.168-.168-.168C61.534,0,62.037.5,61.7.336A2.426,2.426,0,0,0,60.528,0H24.149a7.444,7.444,0,0,0-7.378,7.378V33.028l-8.716,7.04a6.341,6.341,0,0,0-1.51,8.382,6.517,6.517,0,0,0-3.52,5.7V89.19c0,4.024,4.19,7.208,8.214,6.706a6.439,6.439,0,0,0,6.2,4.692H72.767a6.639,6.639,0,0,0,6.37-4.86c3.856.67,8.216-2.18,8.216-6.37V53.983a6.519,6.519,0,0,0-3.522-5.7m-4.024-5.2a2.2,2.2,0,0,1,0,3.522l-6.537,5.2V37.723ZM62.876,7.042l3.351,3.352H62.876ZM20.963,7.21a3.182,3.182,0,0,1,3.186-3.186H58.684v8.382a2.22,2.22,0,0,0,2.18,2.18h8.382V55.325L52.482,68.905l-5.7-4.7a2.038,2.038,0,0,0-2.68,0l-5.7,4.7L21.13,54.991c-.166-2.012-.166-45.435-.166-47.781M10.737,43.085l6.034-4.86V51.637c-.166-.17-5.7-4.694-6.034-4.862a2.372,2.372,0,0,1,0-3.69M7.215,89.19V53.983a2.314,2.314,0,0,1,3.69-1.844c2.18,1.678,21.459,17.436,23.8,19.279L13.419,88.854a5.466,5.466,0,0,0-1.844,2.516c-1.676.836-4.36-.5-4.36-2.18m67.9,5.532a2.322,2.322,0,0,1-2.178,1.508H17.61a2.325,2.325,0,0,1-2.178-1.508,2.067,2.067,0,0,1,.67-2.516L45.272,68.57,74.443,92.206a2.065,2.065,0,0,1,.67,2.516m8.048-5.532a2.1,2.1,0,0,1-1.342,1.844,3.1,3.1,0,0,1-3.186-.168,5.765,5.765,0,0,0-1.674-1.844L55.666,71.586,79.473,52.307a2.269,2.269,0,0,1,3.688,1.844Z" transform="translate(2.005 0)" fill="#7da1ff"/>
      <path id="Trazado_21480" data-name="Trazado 21480" d="M18.412,21.771H30.984a2.218,2.218,0,0,0,2.18-2.178V7.018a2.218,2.218,0,0,0-2.18-2.178H18.412a2.218,2.218,0,0,0-2.18,2.178V19.592a2.341,2.341,0,0,0,2.18,2.178M20.59,9.2h8.382V17.58H20.59Z" transform="translate(10.759 3.208)" fill="#7da1ff"/>
      <path id="Trazado_21481" data-name="Trazado 21481" d="M29.807,13.029h8.381a2.179,2.179,0,1,0,0-4.358H29.807a2.179,2.179,0,1,0,0,4.358" transform="translate(18.31 5.747)" fill="#7da1ff"/>
      <path id="Trazado_21482" data-name="Trazado 21482" d="M29.807,16.759H44.557a2.179,2.179,0,1,0,0-4.358H29.807a2.179,2.179,0,1,0,0,4.358" transform="translate(18.31 8.219)" fill="#7da1ff"/>
      <path id="Trazado_21483" data-name="Trazado 21483" d="M18.412,21.733H33.164a2.038,2.038,0,0,0,2.012-2.012,2.194,2.194,0,0,0-2.012-2.178H18.412a2.219,2.219,0,0,0-2.18,2.178,2.328,2.328,0,0,0,2.18,2.012" transform="translate(10.759 11.627)" fill="#7da1ff"/>
      <path id="Trazado_21484" data-name="Trazado 21484" d="M18.412,25.465H45.571a2.2,2.2,0,0,0,2.182-2.012,2.222,2.222,0,0,0-2.182-2.18H18.412a2.221,2.221,0,0,0-2.18,2.18,2.188,2.188,0,0,0,2.18,2.012" transform="translate(10.759 14.1)" fill="#7da1ff"/>
      <path id="Trazado_21485" data-name="Trazado 21485" d="M18.412,29.364H51.943a2.18,2.18,0,1,0,0-4.36H18.412a2.22,2.22,0,0,0-2.18,2.18,2.343,2.343,0,0,0,2.18,2.18" transform="translate(10.759 16.573)" fill="#7da1ff"/>
      <path id="Trazado_21486" data-name="Trazado 21486" d="M38.205,28.936H23.453a2.179,2.179,0,1,0,0,4.358H38.205a2.179,2.179,0,1,0,0-4.358" transform="translate(14.1 19.179)" fill="#7da1ff"/>
      <path id="Trazado_21487" data-name="Trazado 21487" d="M57.891,11.292a6.287,6.287,0,1,0,0,12.573,6.228,6.228,0,0,0,6.2-6.37,5.991,5.991,0,0,0-6.2-6.2m0,8.382a2.179,2.179,0,1,1,2.178-2.18,2.218,2.218,0,0,1-2.178,2.18" transform="translate(34.149 7.484)" fill="#7da1ff"/>
      <path id="Trazado_21488" data-name="Trazado 21488" d="M10.394,12.659a5.223,5.223,0,0,0-5.2-5.2,5.2,5.2,0,1,0,0,10.394,5.116,5.116,0,0,0,5.2-5.2m-6.37,0a1.082,1.082,0,0,1,1-1.006,1.082,1.082,0,0,1,1.008,1.006,1.082,1.082,0,0,1-1.008,1c-.5.168-1-.334-1-1" transform="translate(0 4.945)" fill="#7da1ff"/>
      <rect id="Rectángulo_7525" data-name="Rectángulo 7525" width="4.19" height="4.19" transform="translate(29.171 90.026)" fill="#7da1ff"/>
      <rect id="Rectángulo_7526" data-name="Rectángulo 7526" width="4.19" height="4.19" transform="translate(35.541 90.026)" fill="#7da1ff"/>
      <rect id="Rectángulo_7527" data-name="Rectángulo 7527" width="4.192" height="4.19" transform="translate(41.743 90.026)" fill="#7da1ff"/>
      <rect id="Rectángulo_7528" data-name="Rectángulo 7528" width="4.19" height="4.19" transform="translate(48.115 90.026)" fill="#7da1ff"/>
      <rect id="Rectángulo_7529" data-name="Rectángulo 7529" width="4.192" height="4.19" transform="translate(54.318 90.026)" fill="#7da1ff"/>
      <rect id="Rectángulo_7530" data-name="Rectángulo 7530" width="4.19" height="4.19" transform="translate(60.689 90.026)" fill="#7da1ff"/>
    </g>
  </g>
</svg>
