<svg xmlns="http://www.w3.org/2000/svg" xmlns:xlink="http://www.w3.org/1999/xlink" width="388.765" height="396.713" viewBox="0 0 388.765 396.713">
  <defs>
    <clipPath id="clip-path">
      <rect id="Rectángulo_7576" data-name="Rectángulo 7576" width="388.765" height="396.713" fill="#7da1ff"/>
    </clipPath>
  </defs>
  <g id="Grupo_11487" data-name="Grupo 11487" transform="translate(0 0)">
    <g id="Grupo_11486" data-name="Grupo 11486" transform="translate(0 0)" clip-path="url(#clip-path)">
      <path id="Trazado_21606" data-name="Trazado 21606" d="M317.721,236.674a38.147,38.147,0,0,0-28.905,13.732L205,207.045a35.222,35.222,0,0,0,0-31.787l83.09-44.086c13.009,18.069,39.026,19.516,54.922,4.336,13.725-13.725,13.725-36.854,0-51.3-13.732-13.725-36.854-13.725-51.3,0a36.533,36.533,0,0,0-10.127,30.346l-18.069,9.4V10.5a9.554,9.554,0,0,0-9.389-9.389c-183.546,0-172.7,0-174.142.717A15.7,15.7,0,0,0,76.379,3.99L4.112,76.257a9.174,9.174,0,0,0-2.9,6.5V381.2c0,5.053,4.351,8.672,9.4,8.672H254.85c5.067,0,9.4-4.336,9.4-8.672V257.631l18.785,9.4c-3.612,21.681,13.725,41.907,35.406,41.907a35.789,35.789,0,0,0,36.137-36.13c0-20.226-16.621-36.13-36.861-36.13m0-144.52a18.553,18.553,0,0,1,13.016,5.06c7.225,7.225,7.225,18.785,0,25.286-8.68,8.672-23.136,6.508-28.905-5.06a5.562,5.562,0,0,0-1.448-3.612c-2.9-11.561,5.777-21.674,17.337-21.674M186.209,178.147c7.232,7.225,7.232,18.785,0,25.286-7.225,7.232-18.785,7.232-25.286,0-7.232-7.217-7.232-18.785,0-25.286,6.5-6.508,18.061-6.508,25.286,0m-112-145.968v41.19H33.01ZM245.454,371.805H20.009V92.154H83.6c5.053,0,8.672-4.329,8.672-9.4V19.17H246.185V133.344L194.158,160.8a36.166,36.166,0,0,0-45.519,4.336c-13.732,13.732-13.732,36.854,0,51.31a36.155,36.155,0,0,0,45.519,4.329l52.027,26.741V371.805ZM330.737,285.1c-7.239,7.225-18.8,7.225-25.3,0-7.225-7.232-7.225-18.792,0-25.293,7.232-7.225,18.792-7.225,25.3,0a17.468,17.468,0,0,1,0,25.293" transform="translate(7.456 6.836)" fill="#7da1ff"/>
      <path id="Trazado_21607" data-name="Trazado 21607" d="M15.661,34.4H132.723a9.559,9.559,0,0,0,9.382-9.4c0-5.06-4.329-8.672-9.382-8.672H15.661c-5.067,0-9.411,4.336-9.411,8.672.731,5.06,4.343,9.4,9.411,9.4" transform="translate(38.545 100.726)" fill="#7da1ff"/>
      <path id="Trazado_21608" data-name="Trazado 21608" d="M15.661,38.125h90.314c5.074,0,8.68-4.329,8.68-9.389a8.788,8.788,0,0,0-8.68-8.672H15.661c-5.067,0-9.411,4.329-9.411,8.672.731,5.06,4.343,9.389,9.411,9.389" transform="translate(38.545 123.736)" fill="#7da1ff"/>
      <path id="Trazado_21609" data-name="Trazado 21609" d="M15.661,42.579H78.517a9.562,9.562,0,0,0,9.4-9.4,9.561,9.561,0,0,0-9.4-9.389H15.661A9.568,9.568,0,0,0,6.25,33.183c.731,5.067,4.343,9.4,9.411,9.4" transform="translate(38.545 146.739)" fill="#7da1ff"/>
      <path id="Trazado_21610" data-name="Trazado 21610" d="M15.661,46.31H78.517a9.393,9.393,0,1,0,0-18.785H15.661a9.393,9.393,0,1,0,0,18.785" transform="translate(38.545 169.749)" fill="#7da1ff"/>
      <path id="Trazado_21611" data-name="Trazado 21611" d="M15.661,57.079H78.517a9.561,9.561,0,0,0,9.4-9.389c0-5.06-4.336-8.672-9.4-8.672H15.661c-5.067,0-9.411,4.336-9.411,8.672.731,5.06,4.343,9.389,9.411,9.389" transform="translate(38.545 240.629)" fill="#7da1ff"/>
      <path id="Trazado_21612" data-name="Trazado 21612" d="M15.661,61.433h98.994a9.393,9.393,0,0,0,0-18.785H15.661a9.393,9.393,0,1,0,0,18.785" transform="translate(38.545 263.016)" fill="#7da1ff"/>
      <path id="Trazado_21613" data-name="Trazado 21613" d="M15.661,46.579c-5.067,0-9.411,4.336-9.411,8.672a9.575,9.575,0,0,0,9.411,9.4H178.242c5.067,0,8.68-4.336,8.68-9.4a8.8,8.8,0,0,0-8.68-8.672Z" transform="translate(38.545 287.26)" fill="#7da1ff"/>
      <path id="Trazado_21614" data-name="Trazado 21614" d="M9.4,2.42A9.393,9.393,0,1,1,0,11.809,9.4,9.4,0,0,1,9.4,2.42" transform="translate(0 14.921)" fill="#7da1ff"/>
      <path id="Trazado_21615" data-name="Trazado 21615" d="M61.017,7.461a9.566,9.566,0,0,0-9.4,9.389c0,5.067,4.343,8.672,9.4,8.672s9.4-4.336,9.4-8.672a9.561,9.561,0,0,0-9.4-9.389" transform="translate(318.358 46.01)" fill="#7da1ff"/>
      <path id="Trazado_21616" data-name="Trazado 21616" d="M59.807,46.579c-5.053,0-9.4,4.336-9.4,8.672a9.4,9.4,0,0,0,18.8,0c-.731-5.053-4.343-8.672-9.4-8.672" transform="translate(310.896 287.26)" fill="#7da1ff"/>
      <path id="Trazado_21617" data-name="Trazado 21617" d="M44.684,22.584a9.567,9.567,0,0,0-9.4,9.4,9.4,9.4,0,0,0,18.792,0c-.724-5.06-4.336-9.4-9.4-9.4" transform="translate(217.629 139.277)" fill="#7da1ff"/>
      <path id="Trazado_21618" data-name="Trazado 21618" d="M44.684,26.415a9.393,9.393,0,1,0,9.4,9.4,9.572,9.572,0,0,0-9.4-9.4" transform="translate(217.629 162.904)" fill="#7da1ff"/>
      <path id="Trazado_21619" data-name="Trazado 21619" d="M44.684,30.146c-5.06,0-9.4,4.336-9.4,8.672a9.4,9.4,0,0,0,18.792,0c-.724-4.336-4.336-8.672-9.4-8.672" transform="translate(217.629 185.914)" fill="#7da1ff"/>
      <rect id="Rectángulo_7571" data-name="Rectángulo 7571" width="18.069" height="18.061" transform="translate(117.786 44.795)" fill="#7da1ff"/>
      <rect id="Rectángulo_7572" data-name="Rectángulo 7572" width="18.069" height="18.061" transform="translate(144.527 44.795)" fill="#7da1ff"/>
      <rect id="Rectángulo_7573" data-name="Rectángulo 7573" width="18.069" height="18.061" transform="translate(171.985 44.795)" fill="#7da1ff"/>
      <rect id="Rectángulo_7574" data-name="Rectángulo 7574" width="18.069" height="18.061" transform="translate(198.726 44.795)" fill="#7da1ff"/>
      <rect id="Rectángulo_7575" data-name="Rectángulo 7575" width="18.061" height="18.061" transform="translate(226.183 44.795)" fill="#7da1ff"/>
      <path id="Trazado_21620" data-name="Trazado 21620" d="M65.386,44.8a22.4,22.4,0,0,0,0-44.8,22.514,22.514,0,0,0-22.4,22.4c-.724,11.561,9.4,22.4,22.4,22.4m0-27.458a4.656,4.656,0,0,1,4.336,4.329,4.336,4.336,0,1,1-8.672,0c-.724-2.165,1.448-4.329,4.336-4.329" transform="translate(264.851 -0.004)" fill="#7da1ff"/>
      <path id="Trazado_21621" data-name="Trazado 21621" d="M61.524,49a22.4,22.4,0,1,0,22.4,22.4A22.52,22.52,0,0,0,61.524,49m0,27.458a4.333,4.333,0,1,1,0-8.665,4.333,4.333,0,0,1,0,8.665" transform="translate(241.256 302.184)" fill="#7da1ff"/>
    </g>
  </g>
</svg>
